<mxfile host="app.diagrams.net" modified="2022-04-08T18:34:03.584Z" agent="5.0 (Windows)" etag="ENo13-ndokrVwtbiAP4b" version="17.4.1" type="github">
  <diagram id="5Rl2E7YkQ2Qzgk_aF65r" name="Page-1">
    <mxGraphModel dx="1422" dy="701" grid="1" gridSize="10" guides="1" tooltips="1" connect="1" arrows="1" fold="1" page="1" pageScale="1" pageWidth="850" pageHeight="1100" math="0" shadow="0">
      <root>
        <mxCell id="0" />
        <mxCell id="1" parent="0" />
      </root>
    </mxGraphModel>
  </diagram>
</mxfile>
